<svg xmlns="http://www.w3.org/2000/svg" viewBox="0 0 480 280" width="100%" height="100%">
  <defs>
    <linearGradient id="crypto-bg" x1="0%" y1="0%" x2="100%" y2="100%">
      <stop offset="0%" stop-color="#0b0f19"/>
      <stop offset="100%" stop-color="#05070d"/>
    </linearGradient>
    <linearGradient id="crypto-green" x1="0%" y1="0%" x2="0%" y2="100%">
      <stop offset="0%" stop-color="#10b981"/>
      <stop offset="100%" stop-color="transparent"/>
    </linearGradient>
  </defs>

  <!-- Window Frame -->
  <rect width="480" height="280" rx="12" fill="url(#crypto-bg)"/>
  
  <!-- Window Header -->
  <rect width="480" height="32" rx="12" fill="#131b2e"/>
  <rect y="20" width="480" height="12" fill="#131b2e"/>
  <circle cx="20" cy="16" r="4" fill="#ef4444"/>
  <circle cx="34" cy="16" r="4" fill="#eab308"/>
  <circle cx="48" cy="16" r="4" fill="#22c55e"/>
  <rect x="70" y="11" width="90" height="10" rx="5" fill="#1e293b"/>
  <rect x="360" y="11" width="100" height="10" rx="5" fill="#1e293b"/>

  <!-- Left Sidebar / Pairs -->
  <rect x="14" y="44" width="100" height="222" rx="8" fill="#101726"/>
  <rect x="22" y="54" width="40" height="8" rx="3" fill="#64748b"/>
  <rect x="22" y="70" width="84" height="28" rx="5" fill="#1e293b"/>
  <circle cx="32" cy="84" r="6" fill="#f59e0b"/>
  <rect x="44" y="78" width="30" height="6" rx="2" fill="#ffffff"/>
  <rect x="44" y="86" width="22" height="4" rx="2" fill="#10b981"/>

  <rect x="22" y="104" width="84" height="28" rx="5" fill="#151e33"/>
  <circle cx="32" cy="118" r="6" fill="#6366f1"/>
  <rect x="44" y="112" width="28" height="6" rx="2" fill="#cbd5e1"/>
  <rect x="44" y="120" width="20" height="4" rx="2" fill="#ef4444"/>

  <rect x="22" y="138" width="84" height="28" rx="5" fill="#151e33"/>
  <circle cx="32" cy="152" r="6" fill="#10b981"/>
  <rect x="44" y="146" width="32" height="6" rx="2" fill="#cbd5e1"/>
  <rect x="44" y="154" width="24" height="4" rx="2" fill="#10b981"/>

  <!-- Main Candlestick Chart Area -->
  <rect x="122" y="44" width="344" height="154" rx="8" fill="#101726"/>
  <rect x="134" y="56" width="60" height="10" rx="3" fill="#f8fafc"/>
  <rect x="134" y="70" width="40" height="6" rx="2" fill="#10b981"/>

  <!-- Candlesticks -->
  <g stroke="#10b981" stroke-width="1.5">
    <line x1="210" y1="95" x2="210" y2="140"/>
    <rect x="207" y="105" width="6" height="25" fill="#10b981"/>

    <line x1="230" y1="90" x2="230" y2="135"/>
    <rect x="227" y="98" width="6" height="20" fill="#10b981"/>

    <line x1="250" y1="100" x2="250" y2="150" stroke="#ef4444"/>
    <rect x="247" y="110" width="6" height="30" fill="#ef4444"/>

    <line x1="270" y1="115" x2="270" y2="160" stroke="#ef4444"/>
    <rect x="267" y="120" width="6" height="25" fill="#ef4444"/>

    <line x1="290" y1="95" x2="290" y2="140"/>
    <rect x="287" y="100" width="6" height="30" fill="#10b981"/>

    <line x1="310" y1="80" x2="310" y2="130"/>
    <rect x="307" y="85" width="6" height="35" fill="#10b981"/>

    <line x1="330" y1="70" x2="330" y2="120"/>
    <rect x="327" y="75" width="6" height="30" fill="#10b981"/>

    <line x1="350" y1="65" x2="350" y2="115"/>
    <rect x="347" y="70" width="6" height="32" fill="#10b981"/>

    <line x1="370" y1="75" x2="370" y2="125" stroke="#ef4444"/>
    <rect x="367" y="80" width="6" height="22" fill="#ef4444"/>

    <line x1="390" y1="60" x2="390" y2="110"/>
    <rect x="387" y="65" width="6" height="30" fill="#10b981"/>

    <line x1="410" y1="55" x2="410" y2="105"/>
    <rect x="407" y="58" width="6" height="35" fill="#10b981"/>

    <line x1="430" y1="50" x2="430" y2="98"/>
    <rect x="427" y="52" width="6" height="28" fill="#10b981"/>
  </g>

  <!-- Bottom Stats Row in chart -->
  <rect x="122" y="206" width="344" height="60" rx="8" fill="#101726"/>
  <rect x="136" y="218" width="50" height="5" rx="2" fill="#64748b"/>
  <rect x="136" y="228" width="65" height="12" rx="3" fill="#f8fafc"/>
  <rect x="136" y="244" width="35" height="4" rx="2" fill="#10b981"/>

  <rect x="230" y="218" width="50" height="5" rx="2" fill="#64748b"/>
  <rect x="230" y="228" width="70" height="12" rx="3" fill="#f8fafc"/>
  <rect x="230" y="244" width="40" height="4" rx="2" fill="#ef4444"/>

  <rect x="330" y="218" width="50" height="5" rx="2" fill="#64748b"/>
  <rect x="330" y="228" width="60" height="12" rx="3" fill="#f8fafc"/>
  <rect x="330" y="244" width="30" height="4" rx="2" fill="#10b981"/>
</svg>
